<svg width="1114" height="290" viewBox="0 0 1114 290" fill="none" xmlns="http://www.w3.org/2000/svg">
<path fill-rule="evenodd" clip-rule="evenodd" d="M263.081 169.345V257.714H251.706V242.514C246.911 248.311 241.558 252.666 235.591 255.55C229.652 258.435 223.129 259.878 216.074 259.878C203.528 259.878 192.794 255.357 183.9 246.314C175.006 237.244 170.573 226.261 170.573 213.28C170.573 200.603 175.061 189.731 184.04 180.717C192.989 171.702 203.78 167.181 216.409 167.181C223.686 167.181 230.266 168.707 236.177 171.757C242.059 174.808 247.245 179.413 251.706 185.598V169.345H263.081ZM217.301 178.165C210.944 178.165 205.061 179.717 199.709 182.824C194.328 185.903 190.062 190.258 186.884 195.861C183.705 201.464 182.116 207.399 182.116 213.668C182.116 219.853 183.705 225.789 186.912 231.447C190.118 237.106 194.412 241.516 199.82 244.65C205.229 247.812 211.028 249.393 217.218 249.393C223.436 249.393 229.374 247.84 234.951 244.706C240.553 241.571 244.848 237.355 247.859 232.002C250.87 226.677 252.376 220.658 252.376 213.973C252.376 203.794 249.001 195.278 242.227 188.427C235.479 181.575 227.171 178.165 217.301 178.165ZM358.502 257.714H346.54L316.541 193.281L287.015 257.714H274.776L315.342 169.345H317.378L358.502 257.714ZM444.016 228.423L453.662 233.472C450.483 239.602 446.838 244.574 442.678 248.339C438.53 252.09 433.869 254.973 428.682 256.938C423.469 258.912 417.613 259.878 411.061 259.878C396.506 259.878 385.159 255.162 376.962 245.732C368.766 236.302 364.667 225.65 364.667 213.779C364.667 202.601 368.168 192.627 375.095 183.879C383.893 172.768 395.671 167.181 410.419 167.181C425.615 167.181 437.755 172.909 446.832 184.294C453.255 192.35 456.562 202.379 456.674 214.444H376.376C376.6 224.68 379.917 233.057 386.303 239.574C392.714 246.12 400.633 249.393 410.029 249.393C414.573 249.393 419.008 248.616 423.301 247.063C427.594 245.51 431.247 243.456 434.257 240.878C437.268 238.299 440.531 234.166 444.016 228.423ZM444.127 204.625C442.593 198.551 440.372 193.718 437.435 190.091C434.49 186.452 430.606 183.546 425.782 181.327C420.958 179.108 415.884 177.998 410.587 177.998C401.805 177.998 394.281 180.778 387.976 186.346C383.354 190.428 379.889 196.499 377.52 204.625H444.127ZM545.379 134.847H556.591V182.277C563.626 172.18 573.767 167.132 586.985 167.132C599.709 167.132 610.394 171.494 619.001 180.224C627.622 188.966 631.945 200.139 631.945 213.813C631.945 227.321 627.601 238.39 618.891 247.071C610.181 255.751 599.655 260.079 587.287 260.079C573.767 260.079 563.516 254.753 556.591 244.102V289.619H545.379V244.102C538.563 254.809 528.231 260.162 514.436 260.162C502.289 260.162 491.851 255.827 483.134 247.154C474.402 238.465 470.025 227.377 470.025 213.813C470.025 200.139 474.348 188.967 482.97 180.224C491.576 171.496 502.261 167.132 514.986 167.132C528.478 167.132 538.618 172.18 545.379 182.277V134.847ZM556.26 215.339C556.26 225.88 559.257 234.145 565.22 240.164C571.184 246.183 578.027 249.178 585.748 249.178C596.274 249.178 604.719 245.661 611.059 238.638C617.412 231.601 620.569 223.133 620.569 213.232C620.569 203.024 617.208 194.514 610.537 187.769C603.852 181.009 595.834 177.617 586.492 177.617C578.054 177.617 570.914 180.649 565.054 186.687C559.21 192.712 556.26 202.275 556.26 215.339ZM481.403 213.314C481.403 223.161 484.551 231.607 490.857 238.638C497.162 245.667 505.614 249.178 516.166 249.178C519.821 249.178 523.753 248.234 527.928 246.376C532.104 244.519 535.479 242.153 538.014 239.304C540.56 236.441 542.499 233.176 543.785 229.458C545.08 225.716 545.71 220.277 545.71 213.065C545.71 201.637 542.761 192.85 536.86 186.77C530.946 180.676 523.806 177.617 515.452 177.617C506.054 177.617 498.035 181.008 491.378 187.769C484.735 194.513 481.403 203.051 481.403 213.314ZM640.717 169.345H708.555V179.163H679.534V257.714H668.16V179.163H640.717V169.345ZM721.404 169.345H732.349V185.598C736.695 179.413 741.687 174.807 747.347 171.757C753.006 168.707 759.311 167.181 766.287 167.181C778.441 167.181 788.824 171.703 797.462 180.717C806.099 189.73 810.419 200.603 810.419 213.28C810.419 226.261 806.134 237.252 797.57 246.314C789.019 255.363 778.682 259.878 766.582 259.878C759.795 259.878 753.537 258.418 747.829 255.495C742.111 252.568 736.964 248.2 732.349 242.404V290H721.404V169.345ZM765.483 178.165C755.958 178.165 747.968 181.583 741.47 188.427C734.959 195.283 731.706 203.794 731.706 213.973C731.706 220.658 733.161 226.674 736.053 232.002C738.955 237.351 743.105 241.578 748.501 244.706C753.916 247.845 759.634 249.393 765.617 249.393C771.518 249.393 777.067 247.802 782.277 244.65C787.475 241.508 791.616 237.106 794.699 231.447C797.783 225.791 799.313 219.853 799.313 213.668C799.313 207.399 797.782 201.462 794.726 195.861C791.668 190.259 787.553 185.918 782.384 182.824C777.225 179.735 771.573 178.165 765.483 178.165ZM903.115 228.423L909.076 233.472C905.899 239.602 905.936 244.575 901.775 248.339C897.63 252.09 892.966 254.975 887.779 256.938C882.569 258.912 876.711 259.878 870.159 259.878C855.605 259.878 844.256 255.161 836.061 245.732C827.864 236.302 823.765 225.65 823.765 213.779C823.765 202.601 827.266 192.626 834.192 183.879C842.99 172.768 854.768 167.181 869.518 167.181C884.713 167.181 896.853 172.909 905.93 184.294C912.353 192.349 915.66 202.379 915.772 214.444H835.475C835.698 224.68 839.017 233.057 845.4 239.574C851.811 246.119 859.73 249.393 869.127 249.393C873.672 249.393 878.105 248.616 882.399 247.063C886.693 245.51 890.346 243.456 893.355 240.878C896.366 238.3 899.629 234.166 903.115 228.423ZM903.226 204.625C901.692 198.551 899.468 193.717 896.534 190.091C893.588 186.452 889.703 183.545 884.879 181.327C880.057 179.109 874.982 177.998 869.686 177.998C860.902 177.998 853.377 180.779 847.074 186.346C842.451 190.428 838.988 196.499 836.619 204.625H903.226ZM940.346 169.345V234.804L1005.7 169.345H1006.59V257.714H995.214V192.755L930.364 257.714H928.971V169.345H940.346ZM938.84 133.73H949.547C951.415 136.559 953.895 138.667 957.019 140.081C960.113 141.496 963.849 142.217 968.142 142.217C972.52 142.217 976.061 141.579 978.736 140.331C981.414 139.083 983.951 136.892 986.348 133.73H996.72C995.522 138.612 992.455 142.688 987.548 145.962C982.614 149.235 976.117 150.871 968.06 150.871C960.058 150.871 953.533 149.262 948.486 146.045C943.412 142.827 940.206 138.723 938.84 133.73ZM1028.69 248.061L1062.98 169.345H1068.95L1103.04 248.061H1113.69V269.031H1102.65V257.714H1029.21V269.53H1017.84V248.061H1028.69ZM1065.77 187.123L1039.78 248.061H1090.69L1065.77 187.123Z" fill="#00AF69"/>
<path fill-rule="evenodd" clip-rule="evenodd" d="M170.739 51.8418H216.837C226.8 51.8418 234.952 43.7513 234.952 33.8622V0.921207C234.952 0.414615 234.534 0 234.023 0H188.853C178.889 0 170.739 8.09053 170.739 17.9797V51.8418ZM52.9503 27.4209H129.527C146.078 27.4209 159.618 40.8601 159.618 57.2872V112.005C159.618 112.849 158.925 113.537 158.075 113.537H83.0414C66.4904 113.537 52.9503 100.098 52.9503 83.6704V27.4209ZM0 128.723H115.139C140.024 128.723 160.385 148.932 160.385 173.631V255.904C160.385 257.171 159.341 258.207 158.065 258.207H45.2458C20.3606 258.207 0 237.998 0 213.299V128.723ZM171.889 148.194H244.743C260.489 148.194 273.371 135.407 273.371 119.78V67.721C273.371 66.9197 272.711 66.2643 271.903 66.2643H200.517C184.772 66.2643 171.889 79.0509 171.889 94.6787V148.194Z" fill="#00AF69"/>
</svg>
